# xmcd
#
# Track frame offsets: 
#        150
#        9963
#        21262
#        56638
#        88044
#        102606
#        112897
#        144543
#        180416
#        205044
#        249521
#        273254
#        284407
#        295365
#        310308
#
# Disc length: 4268 seconds
#
# Revision: 0
# Processed by: cddbd v1.5.2PL0 Copyright (c) Steve Scherf et al.
# Submitted via: ExactAudioCopy v0.99pb4
#
DISCID=d510aa0f
DTITLE=Dinah Washington - The Gold Collection
DYEAR=2009
DGENRE=Blues
TTITLE0=Love For Sale
TTITLE1=Our Love Is Here To Stay
TTITLE2=Blue Skies
TTITLE3=Bye Bye Blues
TTITLE4=Am I Blue?
TTITLE5=Pennies From Heaven
TTITLE6=I Let A Song Go Out Of My Heart
TTITLE7=A Foggy Day
TTITLE8=I've Got You Under My Skin
TTITLE9=Lover Come Back To Me
TTITLE10=Alone Together
TTITLE11=Summertime
TTITLE12=Come Rain Or Come Shine
TTITLE13=No More
TTITLE14=There Is No Greater Love
EXTD=
EXTT0=
EXTT1=
EXTT2=
EXTT3=
EXTT4=
EXTT5=
EXTT6=
EXTT7=
EXTT8=
EXTT9=
EXTT10=
EXTT11=
EXTT12=
EXTT13=
EXTT14=
PLAYORDER=
